<svg width="496" height="149" viewBox="0 0 496 149" fill="none" xmlns="http://www.w3.org/2000/svg">
<g clip-path="url(#clip0_229_197)">
<path d="M154.07 0.803915C153.501 0.937328 153.191 1.6711 153.191 3.00524C153.191 5.13986 153.294 5.27327 154.692 4.13926C155.209 3.73902 156.037 3.6056 156.555 3.80572C157.279 4.20596 157.383 4.93974 157.176 8.14167C157.02 10.2096 156.865 12.5443 156.762 13.2781C156.555 14.5455 156.917 14.6122 163.904 15.0792C167.889 15.346 182.017 15.346 195.215 15.0792C208.36 14.8123 238.843 14.7456 262.908 14.9458C286.974 15.1459 307.158 15.0792 307.83 14.8123C308.452 14.5455 308.969 13.8785 308.969 13.2781C308.969 12.5443 308.4 12.2775 306.692 12.2775C305.398 12.2775 304.208 11.944 304.052 11.6104C303.845 11.1435 301.827 11.0768 298.36 11.3436C294.53 11.6771 292.511 11.5437 291.425 10.9434C290.079 10.2763 289.613 10.2763 288.526 11.2102C286.974 12.5443 284.955 12.611 284.127 11.2769C283.196 9.80934 283.972 8.94215 286.404 8.94215C288.992 8.94215 289.458 8.54191 288.733 6.87424C288.319 5.80693 287.854 5.67351 286.197 6.00705C284.179 6.40729 284.127 6.40729 284.127 4.6062C284.127 2.73841 284.127 2.73841 287.026 3.13865C289.251 3.40548 289.924 3.27207 290.183 2.53829C290.338 2.00464 290.286 1.33757 290.079 1.07074C289.717 0.603794 280.401 0.803915 280.039 1.33757C279.935 1.47098 280.194 2.13805 280.66 2.80512C281.229 3.6056 281.54 5.20657 281.54 7.34118C281.54 11.6771 280.815 12.2108 276.106 11.5437C274.139 11.2769 266.997 11.1435 260.321 11.2769C226.319 11.8105 227.664 11.8105 226.836 10.7432C226.215 10.0095 226.112 8.94215 226.422 6.34058C226.629 4.47279 226.991 2.93853 227.25 2.93853C228.182 2.93853 227.664 1.07074 226.629 0.737208C224.921 0.136847 224.041 0.937328 224.197 2.80512C224.352 4.27267 224.093 4.6062 222.696 4.93974C220.626 5.5401 219.798 4.87303 220.056 2.87183C220.212 1.47098 220.005 1.27086 218.348 1.07074L216.485 0.870622L216.692 5.74022C216.796 8.40849 216.692 10.9434 216.485 11.2769C216.227 11.7438 211.362 11.8105 201.373 11.477C192.472 11.1435 186.417 11.2102 186.106 11.5437C185.123 12.611 161.627 12.611 160.695 11.6104C160.177 11.0768 159.919 9.60922 159.919 7.20777C159.919 3.80572 160.022 3.6056 161.161 3.6056C161.885 3.6056 162.61 3.87243 162.765 4.27267C162.92 4.6062 163.283 4.93974 163.49 4.93974C164.214 4.93974 164.576 2.00464 164.007 1.27086C163.541 0.670502 156.089 0.336967 154.07 0.803915ZM224.3 9.60922C225.49 11.0768 222.023 13.6116 220.729 12.2775C219.798 11.2769 219.746 9.20898 220.626 8.67532C221.402 8.27508 223.679 8.80873 224.3 9.60922Z" fill="#4D9855"/>
<path d="M0 23.7511C0 25.352 0.207014 25.4855 3.67451 25.8857C8.22883 26.4861 8.79811 26.7529 8.79811 28.3538C8.79811 29.3544 8.43584 29.6213 6.72797 29.6213C3.72626 29.6213 3.93327 31.3557 7.03849 31.8226C11.3858 32.423 11.127 30.5552 11.127 63.5083C11.127 81.7193 10.92 93.6598 10.6095 95.3275C9.78143 99.1965 7.50427 100.998 3.31223 100.998H0V102.999V105L8.17707 104.733L16.3024 104.466L16.4577 90.2578C16.5612 78.2506 16.7164 75.8491 17.441 74.8485C18.1655 73.7812 18.2173 71.9134 17.9585 58.2385C17.6997 44.7637 17.7515 42.8292 18.476 42.4957C19.3559 42.0287 20.4944 43.6964 22.2541 47.9657C22.8751 49.4332 23.8067 51.5011 24.3242 52.6351C24.8935 53.7024 25.5663 55.2367 25.8768 55.9705C26.1873 56.7043 26.8084 58.1051 27.3259 59.1057C29.1373 62.7079 32.8635 70.3792 33.5363 71.8467C33.8986 72.6472 35.71 76.3161 37.5214 79.9849C39.3327 83.6538 41.4546 88.2566 42.1792 90.1244C43.7318 94.0601 45.4397 94.8606 46.4748 92.1256C46.7853 91.3251 47.7686 89.1238 48.6484 87.3227C49.4765 85.4549 50.3563 83.5204 50.5633 82.9867C50.7703 82.4531 51.9089 80.1184 53.151 77.7836C54.3931 75.4489 55.3764 73.4477 55.3764 73.3143C55.3764 73.1808 56.0492 71.78 56.8772 70.179C57.7053 68.5781 58.7921 66.2433 59.3614 64.9759C59.8789 63.7085 60.9658 61.3737 61.7421 59.8395C62.5184 58.2385 63.1394 56.771 63.1394 56.5041C63.1394 56.304 63.4499 55.5702 63.864 55.0366C64.2262 54.4362 65.2096 52.435 65.9859 50.6339C69.8674 41.4951 71.2647 39.0269 71.9893 40.161C72.1445 40.4278 72.1445 51.3677 72.041 64.4422C71.7823 91.9255 71.9893 90.9916 67.228 90.9916C64.1745 90.9916 62.6219 91.8588 62.6219 93.6598C62.6219 95.1274 64.485 96.0613 66.1411 95.3942C66.6587 95.1274 69.3498 94.9273 72.0928 94.9273C75.612 94.8606 77.2682 94.5937 77.6822 93.9267C78.0962 93.2596 78.2515 85.5883 78.1997 67.1772C78.0962 38.1598 78.0445 38.4266 81.2532 39.694C83.9444 40.7613 112.719 41.295 121.362 40.3611C127.987 39.694 128.66 39.694 129.229 40.7613C129.746 41.6285 129.746 42.0955 129.177 42.8959C128.452 43.9632 119.033 64.1754 119.033 64.7091C119.033 64.8425 118.102 66.9771 116.911 69.3785C115.773 71.8467 114.583 74.515 114.324 75.2488C114.065 76.0492 113.392 77.5168 112.823 78.6508C112.254 79.7181 111.633 81.119 111.426 81.6526C111.012 82.92 108.217 87.6562 107.182 88.9904C105.784 90.658 103.766 92.1923 102.472 92.4591C101.799 92.5258 101.178 92.9928 101.075 93.4597C100.661 95.0607 102.679 95.5276 106.871 94.9273C109.459 94.5937 112.719 94.5937 115.618 95.0607C119.447 95.5943 120.379 95.5276 121 94.7271C122.035 93.4597 121.362 92.3257 119.603 92.3257C118.775 92.3257 117.274 91.8588 116.239 91.3251C113.91 90.0577 113.754 87.923 115.669 83.5871C116.394 81.9861 117.067 80.1851 117.274 79.6514C118.205 76.7163 119.344 74.1147 119.861 73.8479C120.172 73.7145 126.382 73.5144 133.576 73.4477C147.601 73.3143 147.239 73.2475 148.533 76.6496C148.843 77.3834 149.516 78.8509 150.085 79.9849C150.655 81.0522 151.328 82.6532 151.586 83.4537C151.845 84.1875 152.363 85.0547 152.621 85.3215C152.932 85.5216 153.191 86.789 153.191 87.9898C153.191 90.7247 152.052 91.7253 148.533 92.3257C146.98 92.5258 146.152 92.9928 146.049 93.7265C145.79 95.4609 147.187 95.7277 152.725 94.8606C156.606 94.3269 160.126 94.3269 166.802 94.9273C176.325 95.7277 194.801 95.8612 204.323 95.1274C210.171 94.6604 212.552 95.0607 211.931 96.3281C211.776 96.6616 210.637 96.9952 209.395 96.9952C206.29 96.9952 203.909 98.1959 203.909 99.7302C203.909 101.198 203.443 101.131 211.672 100.998C219.694 100.864 220.16 100.531 219.642 94.9273C219.435 92.5925 219.539 90.9916 219.849 90.7247C220.16 90.5246 223.834 90.658 227.975 91.0583C234.496 91.7253 235.686 91.6586 236.307 90.8582C237.394 89.524 236.307 88.39 233.616 88.0565C227.25 87.3227 226.163 85.655 226.163 76.783C226.163 71.7133 226.267 70.9795 227.095 70.9795C239.671 70.7794 276.52 71.0462 276.882 71.313C277.192 71.5799 277.244 76.1159 277.037 82.9867C276.778 92.3924 276.83 94.3269 277.451 94.6604C277.865 94.8606 280.867 95.0607 284.127 95.1274C289.768 95.3275 290.079 95.2608 290.079 93.9934C290.079 92.8594 289.665 92.6592 287.75 92.4591C284.334 92.259 283.196 91.792 282.057 90.3245C281.126 89.1238 281.022 88.0565 281.022 77.7836C281.022 69.9789 281.229 66.31 281.643 65.7764C282.005 65.3094 283.351 64.9759 284.697 64.9759C287.388 64.9759 285.99 63.4416 302.655 84.1875C307.313 89.9243 311.505 94.7939 311.971 94.9273C312.437 95.0607 313.109 95.661 313.42 96.2614C313.989 97.1953 316.732 97.3287 341.419 97.3287L368.745 97.262L368.9 95.7277C369.159 93.4597 368.538 92.9928 365.018 92.7259C361.551 92.4591 360.153 91.7253 358.963 89.524C358.239 88.2566 358.135 84.521 358.135 62.6412C358.135 39.8941 358.239 37.0924 359.015 35.6249C360.309 33.1567 360.671 32.9566 364.138 32.9566C365.846 32.9566 367.502 32.6231 367.813 32.2228C368.641 31.1555 390.222 31.2222 391.671 32.2228C392.292 32.6231 393.69 32.9566 394.88 32.9566C396.484 32.9566 397.727 33.557 399.693 35.2246C403.057 38.093 415.582 54.4362 415.582 55.9038C415.582 56.771 415.012 56.9711 412.735 56.9711C409.216 56.9711 409.112 57.8383 412.218 60.9068C414.857 63.4416 415.271 65.5763 413.408 67.5108C410.303 70.7127 399.176 83.4537 395.863 87.6562C389.084 96.0613 385.771 98.9964 383.184 98.9964C381.528 98.9964 378.319 100.731 378.319 101.598C378.319 103.132 380.234 103.532 384.788 102.865C387.376 102.532 393.379 102.465 398.141 102.665L406.887 103.132L406.68 101.264C406.525 99.3966 406.473 99.3299 402.902 99.1298C400.107 98.9964 399.02 98.5961 398.141 97.5955L397.054 96.1947L398.089 93.9934C398.606 92.7259 400.055 90.658 401.246 89.2572C406.68 83.1202 410.251 78.9843 413.615 74.7818C415.944 71.9134 417.652 70.3124 418.428 70.3124C419.256 70.3124 420.446 71.5132 422.154 74.048C424.845 78.1171 425.001 78.3173 430.331 85.9886C432.35 88.8569 434.368 91.792 434.834 92.3924C435.351 93.0595 435.869 94.3269 436.024 95.1274C436.542 97.9291 435.61 98.6629 431.004 98.9964C426.864 99.3299 426.709 99.3966 426.553 100.998L426.398 102.665H444.408L462.419 102.599V100.931C462.419 99.4633 462.16 99.2632 459.313 98.9297C454.914 98.3293 452.534 96.7951 449.532 92.5925C448.083 90.5913 444.667 85.9886 441.976 82.3864C439.285 78.7175 435.869 74.1814 434.42 72.2469C432.971 70.2457 430.487 67.0438 428.882 65.1093C427.226 63.1081 425.932 60.9735 425.932 60.3064C425.932 58.1718 428.365 56.771 431.211 57.1712L433.799 57.5714L439.026 51.3677C441.924 47.9657 445.702 43.4296 447.41 41.3617C452.171 35.5582 455.38 33.4236 459.676 33.2902C463.712 33.09 464.333 32.6231 463.868 30.355L463.557 28.8208L457.554 29.3544C450.308 30.0215 448.238 30.0215 442.338 29.2877L437.732 28.7541L437.939 30.6886C438.094 32.5564 438.198 32.6231 441.458 32.9566C444.822 33.2902 444.822 33.2902 444.978 35.4248C445.133 37.3593 444.615 38.1598 437.525 46.2313C431.936 52.6351 429.555 54.9699 428.572 54.9699C427.537 54.9699 426.139 53.4356 422.517 48.4326C415.789 39.1604 414.961 37.7595 414.961 35.825C414.961 33.6237 416.461 32.0894 418.169 32.5564C418.894 32.7565 420.343 32.5564 421.43 32.1561C422.931 31.5558 423.345 31.0888 423.241 30.0882C423.086 28.8208 422.361 28.8208 395.915 28.554C379.82 28.4206 366.726 28.6207 363.828 29.0209C361.137 29.3544 357.617 29.8881 356.065 30.0882C354.512 30.2883 349.854 30.0882 345.818 29.6213C339.452 28.8208 338.313 28.8875 337.899 29.688C336.813 31.8893 337.589 32.6231 341.729 33.0233C344.369 33.2234 346.025 33.6904 346.542 34.4242C347.267 35.2914 347.37 38.7601 347.319 62.0408C347.319 76.7163 347.319 89.1238 347.319 89.7241C347.267 91.2584 343.851 92.9261 340.849 92.8594C339.452 92.8594 338.158 93.1929 338.003 93.5264C337.537 94.527 328.791 94.7939 328.014 93.7933C327.652 93.3263 326.669 92.9928 325.789 92.9928C322.632 92.9261 319.889 90.4579 310.884 79.3846C309.124 77.25 306.64 74.4483 305.346 73.1141C304.052 71.78 302.81 70.3792 302.5 69.9789C302.241 69.5787 301.361 68.6448 300.585 68.0444C299.55 67.1772 299.136 66.2433 299.136 64.9092C299.136 63.1081 299.291 62.9747 301.103 62.908C302.138 62.908 304.208 62.3743 305.605 61.7073L308.193 60.5065L308.348 47.8989C308.452 35.4915 308.452 35.2914 307.313 34.1573C306.64 33.4903 305.553 32.9566 304.829 32.9566C304.104 32.9566 302.5 32.4897 301.206 31.8893C297.997 30.4218 278.848 29.688 277.658 30.9554C276.934 31.7559 276.882 33.8905 277.141 49.3665C277.503 66.7103 277.451 66.8437 276.416 67.6442C275.588 68.1778 274.553 68.1778 272.328 67.6442C268.032 66.5769 231.494 66.9771 229.941 68.1778C228.958 68.9116 228.544 68.8449 227.457 67.911L226.163 66.8437V49.2331C226.163 35.9584 226.319 31.5558 226.836 31.1555C227.147 30.8887 230.925 30.7553 235.168 30.8887C243.604 31.0888 244.381 31.4224 246.451 35.1579C247.072 36.292 247.693 38.2265 247.848 39.4939C248.21 42.0287 249.349 43.4296 250.695 42.7625C251.471 42.3623 251.523 41.4951 251.212 35.1579C251.005 31.1555 250.643 27.5534 250.332 27.0864C249.918 26.4193 246.554 26.2192 234.289 26.3526C219.591 26.4861 218.711 26.5528 217.727 27.8202C216.744 29.0876 216.02 29.1543 202.822 29.0209L188.952 28.8875L188.124 31.3557C187.503 33.2234 187.348 35.6249 187.452 40.6279L187.607 47.2986L189.004 47.4987C190.039 47.6321 190.453 47.3653 190.66 46.1646C191.799 40.9614 192.368 39.4272 193.973 37.5594C196.146 34.9578 198.165 34.3575 204.116 34.2908C206.652 34.2908 209.654 33.9572 210.792 33.4903C214.363 32.0894 214.26 31.4224 214.26 63.0414C214.26 78.384 214.156 91.2584 214.001 91.792C213.587 93.0595 170.373 92.5925 167.992 91.2584C165.56 89.8575 164.007 87.8563 162.506 83.9873C162.196 83.2536 161.575 81.8527 161.057 80.8521C160.591 79.8515 159.142 76.8497 157.9 74.1814C156.658 71.5132 155.416 69.1117 155.157 68.9116C154.899 68.7115 154.64 67.6442 154.588 66.5769C154.485 64.7758 154.588 64.6424 156.192 64.8425C158.625 65.0426 158.78 63.5751 156.71 59.5059C155.727 57.5714 154.743 55.5035 154.588 54.9699C154.381 54.4362 153.76 53.0354 153.191 51.9681C152.621 50.834 151.949 49.3665 151.638 48.6327C151.328 47.8989 150.655 46.3647 150.085 45.2974C149.568 44.1634 148.585 41.962 147.912 40.2944C147.239 38.6267 146.514 37.0924 146.204 36.8256C145.169 35.825 138.958 36.2253 137.716 37.3593C136.681 38.2932 135.957 38.3599 131.868 37.6928C128.867 37.1591 118.671 36.959 103.197 36.959C89.9995 37.0257 78.9243 36.8256 78.6137 36.5588C78.2515 36.292 78.148 35.2246 78.3032 33.9572C78.7173 30.8887 77.4752 29.6213 74.1112 29.6213C71.1612 29.6213 71.2647 29.4879 66.1929 40.161C64.9508 42.8292 63.5017 45.831 63.0359 46.8316C62.5184 47.8322 61.8973 49.2331 61.6386 49.9669C61.3798 50.7006 60.6035 52.3683 59.9307 53.6357C59.2579 54.9032 58.5333 56.4374 58.3263 56.9711C58.1193 57.5047 57.4983 58.8389 56.929 59.9729C56.3597 61.0402 55.7386 62.441 55.5316 62.9747C55.3246 63.5083 54.5483 65.176 53.8238 66.6436C53.0992 68.1111 51.9089 70.7127 51.1843 72.5138C49.1142 77.7836 48.4931 78.5841 47.1993 77.7169C46.5783 77.25 46.0607 76.5162 46.0607 76.0492C46.0607 75.5823 45.3362 73.9146 44.5081 72.4471C43.6283 70.9128 42.9555 69.3785 42.9555 69.1117C42.9555 68.7782 42.3345 67.3106 41.5064 65.8431C40.7301 64.4422 39.8503 62.6412 39.488 61.9074C38.9705 60.8401 37.5731 57.9717 33.6399 49.9669C31.0522 44.6303 26.4979 35.1579 25.5145 33.09C24.4795 30.6886 24.3242 30.6219 21.3742 30.5552C16.8717 30.4885 16.5612 30.2216 16.5612 26.2859V22.9506H13.8182C12.2656 22.9506 8.53935 22.7505 5.53764 22.4836L0 22.0834V23.7511ZM298.049 36.2253C302.241 38.093 304.26 40.828 304.984 45.3641C305.605 49.4999 304.829 52.3683 302.241 55.6369C299.136 59.5059 297.169 60.3064 289.561 61.0402C280.142 61.9074 281.022 63.2415 281.022 48.3659C281.022 41.4951 281.177 35.6249 281.384 35.3581C282.109 34.4242 295.565 35.0912 298.049 36.2253ZM136.785 49.2331C137.613 51.301 138.493 53.1021 138.751 53.3022C139.01 53.569 139.217 54.1027 139.217 54.6363C139.217 55.17 139.942 56.9044 140.77 58.5053C141.65 60.173 142.322 61.6406 142.322 61.9074C142.322 62.1075 142.995 63.5751 143.823 65.1093C144.755 66.777 145.169 68.2445 144.91 68.5781C144.548 69.045 125.813 69.3785 122.553 69.045C121.776 68.9116 122.139 67.5108 123.588 64.7091C124.364 63.2415 125.192 61.5071 125.399 60.9735C125.606 60.4398 126.382 58.6387 127.107 56.9711C127.831 55.3034 129.281 52.0348 130.212 49.6333C133.214 42.3623 134.094 42.2956 136.785 49.2331Z" fill="#4D9855"/>
</g>
<defs>
<clipPath id="clip0_229_197">
<rect width="464" height="105" fill="white"/>
</clipPath>
</defs>
</svg>
